# xmcd
#
# Track frame offsets:
#	183
#	18255
#	33935
#	48095
#
# Disc length: 936 seconds
#
# Revision: 0
# Processed by: cddbd v1.5.1PL0 Copyright (c) Steve Scherf et al.
# Submitted via: dBpowerAMP V4.0
#
DISCID=2103a604
DTITLE=River City People - Walking On Ice
DYEAR=1990
DGENRE=Country
TTITLE0=Walking On ice
TTITLE1=Black
TTITLE2=Huskisson Street (Revisited)
TTITLE3=Walking On Ice (Extended Edition)
EXTD=
EXTT0=
EXTT1=
EXTT2=
EXTT3=
PLAYORDER=
